<?xml version="1.0" encoding="UTF-8"?>
<!DOCTYPE svg PUBLIC "-//W3C//DTD SVG 1.1//EN" "http://www.w3.org/Graphics/SVG/1.1/DTD/svg11.dtd">
<!-- Creator: CorelDRAW 2021 (64-Bit) -->
<svg xmlns="http://www.w3.org/2000/svg" xml:space="preserve" width="97.131mm" height="47.7143mm" version="1.1" style="shape-rendering:geometricPrecision; text-rendering:geometricPrecision; image-rendering:optimizeQuality; fill-rule:evenodd; clip-rule:evenodd"
viewBox="0 0 9698.86 4764.44"
 xmlns:xlink="http://www.w3.org/1999/xlink"
 xmlns:xodm="http://www.corel.com/coreldraw/odm/2003">
 <defs>
  <style type="text/css">
   <![CDATA[
    .fil1 {fill:#F7A707}
    .fil4 {fill:#F7A707}
    .fil2 {fill:#FCFDFE}
    .fil0 {fill:#C62727}
    .fil3 {fill:#969698}
   ]]>
  </style>
 </defs>
 <g id="Vrstva_x0020_1">
  <metadata id="CorelCorpID_0Corel-Layer"/>
  <g id="_2358478729904">
   <path class="fil0" d="M6702.64 2452.07c-13.95,34.89 -32.44,65.96 -55.62,93.19 -23.26,27.34 -51.05,50.73 -83.46,70.35 -32.47,19.62 -66.29,32.55 -101.52,38.76 -74.15,13.05 -136.25,-1.46 -186.31,-43.66 -50.03,-42.13 -75.07,-100.29 -75.07,-174.47 0,-72.28 25.04,-138.34 75.07,-198.15 50.06,-59.79 112.16,-96.24 186.31,-109.31 35.23,-6.2 69.05,-5.24 101.52,2.94 32.41,8.2 60.2,21.83 83.46,40.92 23.18,19.1 41.67,43.65 55.62,73.63 13.88,29.98 20.82,62.63 20.82,97.82 0,37.13 -6.94,73.07 -20.82,107.98zm-3023.44 628.07l0 0c-50.06,58.89 -113.11,95.04 -189.11,108.43 -76.04,13.41 -139.53,-0.43 -190.49,-41.5 -51,-41.08 -76.49,-100.53 -76.49,-178.39 0,-77.89 25.49,-146.33 76.49,-205.37 50.97,-59.07 114.45,-95.28 190.49,-108.67 76,-13.42 139.06,0.48 189.11,41.71 50.06,41.25 75.06,100.8 75.06,178.66 0,77.86 -25,146.24 -75.06,205.13zm530.99 -1474.22l0 -1374.36c0,-92.68 -21.8,-156.47 -65.34,-191.46 -43.57,-34.98 -95.95,-47.06 -157.1,-36.28 -64.92,11.44 -119.59,42.41 -164.09,92.89 -44.52,50.51 -66.79,122.09 -66.79,214.76l0 1437.76c0,4.34 0.08,8.63 0.18,12.83l0 447.8c-42.7,-10.98 -85.28,-16.45 -127.9,-16.38 -42.66,0.14 -89.02,4.57 -139.06,13.37 -98.26,17.34 -190.95,52.25 -278.1,104.71 -87.14,52.45 -163.16,116.81 -228.02,193.15 -64.92,76.37 -116.39,161.39 -154.35,255.22 -11.04,27.22 -20.27,54.63 -28.08,82.21 -7.92,-26.7 -17.44,-52.67 -28.93,-77.71 -37.13,-80.55 -88.1,-147.57 -152.95,-201.06 -64.92,-53.43 -140.95,-91 -228.06,-112.72 -87.16,-21.7 -179.83,-23.91 -278.12,-6.59 -100.06,17.64 -193.74,52.74 -280.8,105.15 -52,31.28 -99.53,67.35 -143.6,107.12 -4.86,67.88 -19.37,128.44 -43.58,180.32 -29.99,64.2 -69,118.37 -115.96,161.06 -31.97,29.09 -66.47,53.79 -102.83,74.43 -3.63,12.72 -7.43,25.43 -10.42,38.22 -2.5,-9.48 -5.77,-18.62 -8.75,-27.9 -9.72,5 -19.39,10.05 -29.34,14.41 -53.15,23.39 -103.77,39.41 -150.52,47.66l-16.66 2.93c-21.6,3.8 -42.6,5.74 -62.54,5.74 -61.81,0 -115.75,-18.19 -160.27,-54.01 -59.13,-47.48 -90.42,-112.67 -90.42,-188.45 0,-71.58 20.22,-134.47 60.06,-187.02 7.52,-10.01 15.56,-19.56 23.71,-28.96 -80.98,-17.78 -167.11,-18.89 -258.51,-2.75 -64.9,11.44 -124.71,28.97 -179.38,52.48 -54.67,23.54 -106.13,50.69 -154.32,81.44 -44.49,-36.67 -97.34,-49.57 -158.52,-38.78 -70.48,14.27 -126.53,48.72 -168.24,103.36 -41.72,54.65 -62.61,121.85 -62.61,201.52l0 1440.53c0,83.42 18.12,145.56 54.27,186.46 36.14,40.93 95,54.18 176.58,39.8 61.18,-10.77 113.53,-41.39 157.13,-91.66 43.56,-50.34 65.34,-121.86 65.34,-214.52l0 -333.74c42.64,11.06 85.7,16.38 129.33,16.13 43.54,-0.28 90.35,-4.78 140.41,-13.63 98.25,-17.33 190.48,-52.13 276.68,-104.45 86.24,-52.23 161.72,-116.52 226.68,-192.9 64.85,-76.3 116.33,-161.37 154.31,-255.25 14.94,-36.97 26.86,-74.22 35.94,-111.87 8.85,34.62 20.43,67.76 34.98,99.37 37.06,80.66 88.04,148.13 152.96,202.46 64.85,54.39 140.87,92.44 228.08,114.13 87.06,21.7 180.73,23.75 280.8,6.09 98.3,-17.32 190.96,-52.23 278.12,-104.69 87.1,-52.41 163.13,-117.24 228.06,-194.51 64.84,-77.23 115.82,-162.69 152.95,-256.41 10.87,-27.59 20,-55.44 27.68,-83.55 8.08,26.21 17.73,51.69 29.33,76.26 37.96,80.5 89.43,147.41 154.35,200.86 64.85,53.43 140.87,91.03 228.02,112.75 87.15,21.72 179.85,23.92 278.1,6.56 63,-11.1 122.36,-28.54 177.98,-52.24 55.62,-23.72 106.55,-50.77 152.96,-81.2 44.48,36.68 98.25,49.43 161.29,38.29 70.42,-14.27 126.04,-48.61 166.84,-103.11 40.75,-54.46 61.19,-121.54 61.19,-201.26l0 -1619.73c0,-4.2 -0.08,-7.88 -0.15,-11.1zm-1856.12 1614.71l0 0c-13.89,34.91 -32.46,65.99 -55.62,93.22 -23.19,27.3 -51.01,50.73 -83.43,70.35 -32.45,19.62 -66.3,32.51 -101.53,38.71 -74.15,13.07 -136.24,-1.41 -186.3,-43.62 -50.06,-42.13 -75.07,-100.27 -75.07,-174.47 0,-72.27 25.01,-138.31 75.07,-198.13 50.06,-59.82 112.15,-96.28 186.3,-109.35 35.23,-6.2 69.08,-5.21 101.53,2.98 32.42,8.2 60.24,21.83 83.43,40.88 23.16,19.14 41.73,43.65 55.62,73.63 13.89,30.01 20.89,62.63 20.89,97.82 0,37.13 -7,73.09 -20.89,107.98zm-1443.29 344.87l0 0c-51,59.04 -113.55,95.11 -187.7,108.15 -77.86,13.74 -141.82,0 -191.89,-41.25 -50.06,-41.21 -75.07,-100.78 -75.07,-178.64 0,-77.84 25.01,-146.23 75.07,-205.11 50.07,-58.89 114.03,-95.18 191.89,-108.91 74.15,-13.08 136.71,0.91 187.7,41.98 50.97,41.09 76.48,100.52 76.48,178.38 0,77.89 -25.51,146.33 -76.48,205.4zm1854.78 -2272.74l0 0c50.98,-59.05 114.45,-95.27 190.51,-108.65 75.98,-13.39 139.03,0.49 189.08,41.7 50.07,41.24 75.07,100.8 75.07,178.66 0,77.88 -25,146.26 -75.07,205.15 -50.06,58.86 -113.1,95.01 -189.08,108.38 -76.06,13.43 -139.54,-0.38 -190.51,-41.46 -51,-41.06 -76.47,-100.52 -76.47,-178.41 0,-77.86 25.47,-146.35 76.47,-205.37zm-526.99 284.8l0 0c0,-98.25 19,-194.27 57.05,-288.15 37.93,-93.79 89.38,-178.86 154.32,-255.27 64.84,-76.3 140.85,-140.66 228.01,-193.11 87.15,-52.45 179.85,-87.36 278.12,-104.7 50.06,-8.84 96.39,-13.24 139.03,-13.39 42.65,-0.1 85.26,5.39 127.96,16.39l0 -333.73c0,-92.64 21.73,-164.12 65.33,-214.5 43.55,-50.34 96.83,-81.09 159.91,-92.18 79.68,-14.06 137.63,-0.6 173.8,40.26 36.11,40.9 54.21,103.04 54.21,186.53l0 1440.52c0,79.71 -20.39,146.82 -61.15,201.27 -40.82,54.47 -96.45,88.81 -166.87,103.11 -63.08,11.1 -116.83,-1.65 -161.31,-38.32 -46.34,30.45 -97.33,57.52 -152.95,81.23 -55.63,23.71 -114.98,41.15 -177.97,52.24 -98.28,17.32 -190.97,15.11 -278.12,-6.59 -87.15,-21.7 -163.16,-59.28 -228.01,-112.74 -64.94,-53.41 -116.39,-120.33 -154.32,-200.84 -38.04,-80.38 -57.05,-169.76 -57.05,-268.04zm-431.98 -753.29l0 0c-22.28,-10.01 -41.3,-24.23 -57.06,-42.8 -15.75,-18.53 -28.25,-40.9 -37.5,-67.07 -9.29,-26.17 -13.91,-53.19 -13.91,-80.98 0,-27.8 8.35,-56.12 25,-85.04 16.71,-28.89 39.89,-53.37 69.53,-73.45l22.24 -15.04 289.26 -170.6c22.21,-13.17 43.11,-23.82 62.55,-31.88 19.48,-8.03 36.61,-13.38 51.43,-16.03 24.09,-4.22 47.31,-1.83 69.54,7.22 22.26,9.06 41.73,21.85 58.39,38.36 16.71,16.56 30.12,35.97 40.33,58.26 10.2,22.3 15.29,44.56 15.29,66.79 0,98.32 -44.48,171.02 -133.47,218.22l-275.32 154.22c-20.43,11.02 -37.1,20.43 -50.06,28.29 -12.99,7.85 -34.31,14.37 -63.96,19.62 -25.97,4.57 -50.07,1.87 -72.28,-8.11zm297.12 1418.08l0 0c-43.6,49.41 -96.88,79.64 -159.92,90.78 -64.91,11.44 -119.16,0.13 -162.66,-33.89 -43.58,-34.03 -65.36,-97.37 -65.36,-190.11l0 -881.55c0,-92.68 21.79,-164.19 65.36,-214.5 43.51,-50.34 97.75,-81.23 162.66,-92.67 63.04,-11.13 116.32,0.81 159.92,35.75 43.54,35.02 65.37,98.81 65.37,191.53l0 881.55c0,92.71 -21.84,163.73 -65.37,213.12zm-874.6 -1290.67l0 0c-44.5,-36.64 -66.77,-86.47 -66.77,-149.53 0,-61.15 22.27,-118.36 66.77,-171.66 44.48,-53.22 98.25,-85.42 161.29,-96.59 29.63,-5.18 58.4,-4.22 86.18,2.93 27.84,7.11 52.39,19.48 73.71,37.06 21.31,17.54 37.96,39.17 50.07,64.85 12.01,25.64 18.05,53.4 18.05,83.02 0,63.03 -22.72,120.76 -68.12,173.32 -45.45,52.52 -98.72,84.16 -159.9,94.9 -63.05,11.13 -116.81,-1.62 -161.29,-38.29zm339.27 127.91l0 0c44.48,37.61 66.72,104.59 66.72,200.97l0 1323.71c0,81.55 -13.48,151.16 -40.29,208.72 -26.93,57.59 -61.21,105.36 -102.9,143.3 -41.73,37.93 -87.2,67.73 -136.3,89.35 -49.15,21.64 -95,36.22 -137.61,43.72l-16.73 2.98c-72.3,12.76 -131.66,0.52 -177.96,-36.76 -46.38,-37.26 -69.53,-85.55 -69.53,-144.84 0,-59.34 16.2,-110.4 48.64,-153.19 32.45,-42.84 70.02,-79.09 112.67,-108.86 25.91,-13.89 43.54,-28.54 52.82,-44.07 9.24,-15.54 13.91,-32.62 13.91,-51.11l0 -1193.04c0,-96.37 19.87,-170.78 59.79,-223.26 39.83,-52.45 92.18,-84.4 157.1,-95.85 68.59,-12.08 125.18,0.64 169.65,38.22zm6310.56 1052.39l0 0c-30.58,-29.76 -63.97,-53.57 -100.07,-71.34 -36.18,-17.68 -70.95,-32.94 -104.31,-45.57l-11.17 -3.58c-5.49,-0.86 -15.25,-4.27 -29.17,-10.16 -13.87,-5.92 -28.74,-12.06 -44.48,-18.6 -15.79,-6.44 -29.66,-13.74 -41.67,-21.85 -12.16,-7.99 -18.11,-15.78 -18.11,-23.21 0,-16.67 2.3,-30.98 6.91,-42.94 4.61,-11.94 19.9,-20.2 45.93,-24.76 14.8,-2.6 27.3,1.69 37.55,12.82 10.15,11.2 17.08,19.24 20.81,24.16 22.23,27.58 45.87,46.6 70.92,57 25.04,10.46 57.03,12.18 95.96,5.32 62.98,-11.06 108.46,-38.57 136.29,-82.44 27.79,-43.83 41.67,-97.22 41.67,-160.27 0,-40.74 -12.08,-78.51 -36.11,-113.17 -24.16,-34.7 -56.08,-63.39 -95.99,-86.02 -39.88,-22.59 -84.8,-38.33 -134.85,-47.1 -50.02,-8.76 -101.09,-8.63 -152.92,0.53 -133.54,23.53 -239.68,82.15 -318.47,175.7 -78.76,93.66 -118.19,207.16 -118.19,340.67 0,7.05 0.6,13.43 0.81,20.19 -2.96,-7.2 -5.85,-14.44 -9.09,-21.54 -37.17,-80.55 -88.14,-147.54 -152.99,-201.01 -64.95,-53.45 -140.94,-91.03 -228.06,-112.77 -87.18,-21.7 -179.87,-23.91 -278.11,-6.59 -100.11,17.66 -193.75,52.75 -280.86,105.17 -87.15,52.47 -163.16,116.83 -228.02,193.18 -64.92,76.37 -115.93,161.33 -152.96,255 -20.11,50.77 -34.55,102.23 -43.79,154.34 -7.96,-174.66 -62.17,-302.79 -162.88,-384.08 -109.41,-88.21 -263.31,-114.88 -461.67,-79.89 -42.66,7.53 -85.24,19.24 -127.94,35.08 -42.66,15.87 -83.42,37.46 -122.34,64.67 -38.92,-30.18 -87.18,-40.25 -144.64,-30.11 -64.87,11.43 -119.54,41.04 -164.04,88.73 -44.45,47.75 -66.75,116.04 -66.75,205.03l0 906.57c3.69,97.64 26.45,162.19 68.13,193.81 41.74,31.56 95.95,41.46 162.66,29.7 59.32,-10.46 111.28,-41.85 155.77,-94.2 44.48,-52.33 66.75,-123 66.75,-211.98l0 -545.05c3.69,-45.17 22.23,-85.98 55.59,-122.45 33.39,-36.46 72.31,-58.61 116.81,-66.47 48.19,-8.52 88.98,0.99 122.34,28.47 33.43,27.48 50.09,65.34 50.09,113.53l0 531.15c0,92.74 22.23,155.97 66.72,189.86 44.48,33.88 99.16,45.05 164.08,33.64 61.19,-10.81 113.53,-40.89 157.11,-90.3 43.54,-49.38 65.38,-120.39 65.38,-213.12l0 -311.21c9.23,47.02 23.39,91.49 42.62,133.25 37.03,80.64 88.03,148.13 152.96,202.45 64.85,54.38 140.86,92.43 228.02,114.13 87.11,21.7 180.74,23.74 280.86,6.09 98.25,-17.29 190.93,-52.24 278.11,-104.66 87.11,-52.41 163.1,-117.24 228.06,-194.52 64.84,-77.24 115.82,-162.71 152.99,-256.44 37.06,-93.63 55.55,-190.53 55.55,-290.64 0,-26.03 -1.37,-51.42 -3.97,-76.2 19.16,34.7 41.67,63.98 67.95,87.16 31.49,27.82 64.39,49.38 98.77,64.63 34.24,15.29 65.34,27.86 93.09,37.8l13.92 5.91c11.09,3.55 25.04,6.66 41.71,9.31 16.7,2.61 32.9,6.26 48.65,10.88 15.75,4.69 28.78,12.08 38.95,22.33 10.19,10.28 15.29,25.61 15.29,45.97 0,24.12 -15.74,38.95 -47.27,44.48 -20.43,3.59 -39.41,0 -57.03,-10.81 -17.61,-10.77 -35.65,-22.4 -54.22,-34.91 -18.56,-12.46 -37.96,-23.91 -58.36,-34.21 -20.43,-10.31 -44.52,-13.02 -72.32,-8.09 -64.88,11.4 -112.23,38.82 -141.81,82 -29.7,43.27 -44.53,95.42 -44.53,156.62 0,57.49 12.58,104.87 37.55,142.17 25.08,37.26 57.91,65.34 98.74,84.09 40.8,18.81 88.07,29.9 141.86,33.39 53.72,3.45 109.38,0.21 166.83,-9.94 57.43,-10.16 112.17,-30.92 164.12,-62.3 51.82,-31.4 96.81,-69.94 134.81,-115.56 38.01,-45.61 68.13,-96.83 90.43,-153.58 22.23,-56.74 33.32,-114.8 33.32,-174.15 0,-66.75 -9.72,-122.45 -29.2,-167.25 -19.41,-44.78 -44.45,-82.08 -75.07,-111.92z"/>
   <path class="fil1" d="M8022.38 2710.58c0,-31.56 11.55,-62.63 34.7,-93.24 23.11,-30.58 53.86,-49.25 92.18,-56 32.69,-5.8 60.62,2.56 83.77,24.96 23.08,22.44 34.67,49.46 34.67,81.02 0,32.72 -11.59,62.92 -34.67,90.7 -23.15,27.77 -51.08,44.53 -83.77,50.29 -38.32,6.8 -69.08,0.34 -92.18,-19.24 -23.15,-19.62 -34.7,-45.76 -34.7,-78.48zm1201.14 -671.93l0 0c-37.24,6.54 -68.8,-0.57 -94.75,-21.39 -25.96,-20.78 -38.93,-50.9 -38.93,-90.39 0,-38.32 12.97,-73.05 38.93,-104.13 25.95,-31.07 57.52,-49.92 94.75,-56.48l312.99 -55.19c21.41,-3.76 41.99,-3.18 61.71,1.88 19.76,4.99 37.21,13.21 52.42,24.68 15.22,11.45 27.08,26.03 35.58,43.75 8.45,17.74 12.64,37.37 12.64,58.86 0,13.59 -5.6,33.26 -16.91,58.97 -11.27,25.74 -35.48,69.04 -72.71,129.89l-170.88 272.74 123.51 -21.73c39.48,-6.98 72.13,0.17 98.14,21.34 25.92,21.25 38.85,51.43 38.85,90.64 0,37.03 -12.93,71.24 -38.85,102.72 -26,31.49 -58.65,50.7 -98.14,57.68l-312.99 55.16c-21.45,3.79 -41.71,3.14 -60.87,-1.98 -19.19,-5.02 -36.14,-13.31 -50.8,-24.86 -14.69,-11.48 -26.2,-26.07 -34.66,-43.79 -8.46,-17.68 -12.72,-37.22 -12.72,-58.65 0,-14.66 2.26,-30.26 6.8,-46.88 4.47,-16.57 10.71,-31.74 18.63,-45.55l277.44 -375.44 -169.19 28.15zm-537.97 -191.07l0 0c-60.91,10.75 -117.87,32.06 -170.85,63.99 -53.05,31.91 -99.58,71.12 -139.6,117.65 -40.05,46.57 -71.34,98.28 -93.88,155.29 -22.58,57 -33.85,115.35 -33.85,175.09 0,60.95 11.27,115.9 33.85,164.93 22.55,49.03 53.83,90.04 93.88,123.01 40.01,33 86.54,56.08 139.6,69.29 52.98,13.21 109.94,14.45 170.85,3.7 84.58,-14.94 160.98,-50.65 229.21,-107.23 68.24,-56.57 120.97,-124.24 158.21,-203 6.76,-15.82 10.15,-33.92 10.15,-54.24 0,-32.65 -8.74,-59.34 -26.25,-79.98 -17.5,-20.6 -44.8,-30.98 -82.04,-31.16 -5.67,-0.14 -10.99,0.25 -16.07,1.13 -5.07,0.89 -9.9,1.72 -14.33,2.54 -31.63,5.56 -55.87,16.91 -72.78,33.99 -16.95,17.08 -29.91,32.62 -38.92,46.6 -21.42,33.12 -43.44,59.25 -65.97,78.46 -22.59,19.17 -49.08,31.47 -79.51,36.84 -22.54,3.97 -43.43,3.44 -62.6,-1.62 -19.19,-5.11 -35.82,-13.72 -49.91,-25.89 -14.09,-12.15 -25.36,-27.37 -33.82,-45.61 -8.46,-18.25 -12.68,-38.65 -12.68,-61.24 0,-21.41 4.22,-42.76 12.68,-63.97 8.46,-21.23 19.73,-40.13 33.82,-56.75 14.09,-16.56 30.71,-30.75 49.91,-42.62 19.17,-11.84 40.06,-19.73 62.6,-23.73 34.95,-6.15 62.28,-4.77 82.05,4.13 19.72,8.95 37.47,19.34 53.29,31.22 13.53,10.03 27.62,18.8 42.27,26.37 14.66,7.58 33.29,11.02 55.87,10.46 3.36,0.53 7.01,0.46 10.99,-0.25 3.91,-0.71 7.58,-1.34 10.99,-1.95 36.07,-6.37 65.66,-22.29 88.8,-47.79 23.12,-25.5 34.67,-56.3 34.67,-92.39 0,-19.16 -2.26,-34.84 -6.77,-47.03 -4.5,-12.15 -9.58,-22.27 -15.22,-30.31 -18.06,-22.74 -39.73,-43.45 -65.09,-62.1 -25.4,-18.67 -53.9,-33.87 -85.45,-45.82 -31.6,-11.94 -64.89,-19.87 -99.8,-23.88 -34.98,-3.98 -71.09,-2.69 -108.28,3.86z"/>
   <line class="fil2" x1="5195.73" y1="439.22" x2="5195.73" y2= "439.22" />
   <line class="fil3" x1="5195.73" y1="439.22" x2="5195.73" y2= "439.22" />
   <line class="fil2" x1="5114.07" y1="625.53" x2="5114.07" y2= "625.53" />
   <line class="fil3" x1="5114.07" y1="625.53" x2="5114.07" y2= "625.53" />
   <g>
    <path class="fil4" d="M4803.46 791.52c-76.79,5.68 -153.58,11.34 -230.37,17.04 -22.51,1.67 -62.24,1.76 -83.2,9.8 -4.31,1.66 -8.31,1.77 -12.36,3.31 -4.41,1.67 -6.07,3.46 -11.29,5.27 -4.21,1.47 -0.77,0.2 -4.11,2.67l-9.52 5.19c-2.93,1.79 -3.1,1.02 -5.62,3.38 -2.5,2.33 0.85,-0.3 -1.6,1.57 -2.75,2.11 -4.55,2.51 -6.98,5.31 -7.03,8.12 -16.66,14.66 -23.71,22.83 -2.25,2.61 -4.87,5.85 -6.88,8.58l-15.53 23.63c-0.12,0.18 -0.3,0.42 -0.41,0.61l-0.67 1.41c-0.1,0.25 -0.16,0.55 -0.25,0.8l-3.7 7.62c-3.31,5.71 -4.06,11.1 -7.05,16.62 -2.55,4.71 -5.28,18.38 -6.79,23.95 -5.02,18.53 -5.3,52.97 0.13,70.29 1.38,4.42 1.02,7.75 2.78,12.23l21.74 47.1c0.13,0.15 0.31,0.38 0.44,0.55 0.13,0.16 0.29,0.4 0.42,0.57 1.15,1.46 0.64,0.81 1.74,2.18l6.44 8.11c3.86,5.05 17.6,15.88 23.36,19.59 7.38,4.75 13.54,10.51 21.13,14.71 4.37,2.42 11.37,3.87 15.35,6.23 4.4,2.62 5.78,1.34 10.78,2.94 7.03,2.25 16.26,2.51 23.66,3.88 11.34,2.11 43.15,-1.78 57.26,-2.83l47.19 -3.49c42.56,-110.51 103.54,-225.91 178.85,-319.2 5.85,-7.26 12.13,-14.78 18.79,-22.42zm687.8 275.88l349.04 -25.91c19.14,-1.41 23.2,-2.75 39.34,-7.09l21.96 -9c10.22,-5.24 19.72,-10.85 28.66,-18.65 1.37,-1.19 2.39,-2 3.94,-3.29 1.2,-0.99 1.36,-1.18 2.32,-1.88 6.42,-4.7 12.36,-11.54 18.41,-16.74 3.3,-2.83 4.95,-7.58 7.71,-10.79l2.26 -2.73c0.12,-0.17 0.27,-0.45 0.39,-0.63l21 -39.75c1.37,-3.42 1.22,-0.7 2.47,-5.6 1.47,-5.78 0.38,-7.68 2.66,-13.12l2.85 -12.62c3.37,-14.52 2.86,-29.29 2.61,-44.04 -0.25,-14.97 -2.65,-15.83 -3.93,-27.42 -0.7,-6.26 -2.33,-6.34 -3.79,-11.1l-2.37 -8.93c-0.54,-1.08 -0.94,-1.56 -1.31,-2.45l-4.23 -10.58c-6,-15.81 -17.57,-29.71 -28.3,-42.03l-5.78 -4.55c-7.08,-5.06 -13.4,-10.92 -21.11,-15.01 -14.6,-7.73 -22.61,-12.7 -40.43,-15.82 -4.71,-0.82 -8.43,-0.61 -12.94,-1.68 -17.71,-4.2 -89.3,3.93 -114.27,5.79 -21.38,1.59 -43.91,2.72 -66.2,4.22 0.26,15.13 -7.31,30.5 -21.75,39.76 -1.08,0.7 -2.17,1.35 -3.29,1.98 -1.38,0.78 -2.77,1.54 -4.14,2.3 -4.04,2.25 -8.04,4.54 -11.99,6.94 -12.26,7.45 -24.14,15.8 -35,25.09 -14.83,12.71 -36.56,37.12 -44.63,54.12 -31.99,67.41 -57.31,139.24 -80.12,211.19z"/>
    <path class="fil4" d="M4455.32 1260.01l111.52 -8.27c-19.94,73.21 -34.11,153.75 -33.38,230.87l-1.73 -1.66c-1.32,-1.36 -1.17,-1.1 -2.64,-2.19 -3.73,-2.78 -4.68,-5.95 -8.21,-9.56 -4.04,-4.14 -7,-10.87 -11.63,-14.7l-1.12 -0.8c-3.08,-2.25 -3.89,-5.75 -6.17,-8.67 -4.02,-5.18 -6.39,-10.99 -11.12,-15.28 -2.64,-2.39 -1.93,-3.16 -3.73,-6.36l-10.99 -22.26c-2.4,-5.8 -5.45,-9.34 -8.93,-18.19 -1.08,-2.73 -1.86,-3.01 -2.84,-5.53 -0.96,-2.52 -0.87,-4.58 -2.18,-7.31 -4.26,-8.91 -9.67,-30.85 -11.75,-41.1 -1.02,-5.06 -3.07,-10.1 -3.65,-13.92l-4.01 -30.82c-1.6,-21.57 -2.57,-23.15 12.57,-24.26zm999.79 -74.26c55.34,-4.06 110.68,-8.16 166.02,-12.3l287.69 -21.35c6.45,-0.47 12.38,-1.54 16.46,0.94 1.83,22.13 -1.83,40.84 -6.74,62.08 -1.18,5.11 -0.93,10.49 -2.22,15.34 -0.8,3.01 -1.55,2.99 -2.59,6.08 -2,6 -7.72,28.73 -10.81,35.11 -7.05,14.58 -14.26,35.59 -23.16,48.89 -0.75,1.11 -2.96,4.51 -3.41,5.59l-4.1 8.82c-0.85,1.32 -0.95,1.7 -1.91,3.03l-35.56 47.7c-2.2,4.6 -0.12,1.72 -3.82,4.91 -1.87,1.61 -3.21,3.03 -4.6,4.62 -0.87,1 -0.88,1.11 -1.78,2.28 -0.13,0.17 -0.3,0.41 -0.43,0.57l-1.83 2.19c-8.91,9.86 -32.4,32.86 -43.14,41.9l-52.54 40.44c-3.81,2.74 -7.78,5.23 -11.7,7.85 -8.9,5.91 -30.43,21.65 -40,25.61 -5.24,2.18 -6.6,5.02 -10.93,7.44l-12.87 5.93c-5.07,2 -7.87,4.73 -12.31,7.23 -5.01,2.84 -10.82,4.91 -15.68,8.19 -4.41,2.99 -11.17,5.54 -16.26,7.48l-4.16 2.21c-1.79,1.18 0.96,-0.26 -1.76,1.19l-14.01 5.73c-11.41,3.43 -22.54,9.49 -33.75,13.51 -2.31,0.83 -4.81,1.22 -7.12,2.35 -10.89,5.32 -24.04,9.51 -35.43,13.55 -5.61,2 -6.56,4.06 -12.89,5.34l-29.98 9.26c-5.34,1.43 -10.48,1.37 -15.44,3.81 -4.1,2.03 -9.94,2.47 -14.23,4.57l-30.14 8.5c-6.31,1.55 -11.49,0.98 -17.35,3.24 -7.45,2.88 -39.17,7.26 -48.16,10.12 -5.19,1.65 -10.37,3.14 -16.06,3.8l-25.05 3.73c-3.25,0.51 -5.82,1.61 -8.38,2.15l-28.9 4.11c30.46,-42.32 55.37,-88.64 76.53,-134.98 48.06,-105.29 81.34,-218.64 114.49,-328.74z"/>
    <path class="fil4" d="M4758.75 1759.88c583.49,165.55 578.07,-516.48 770.25,-921.37 8.72,-18.36 32.17,-48.74 56.53,-69.62 29.87,-25.6 60.52,-40.17 60.04,-40.52 -289.68,-215.63 -646.28,286.65 -681.44,547.03 -7.52,55.7 -71.39,-237.02 144.65,-440.37 67.91,-63.94 19.58,-115.24 -93.08,-123.73 -241.25,-18.17 -684.46,927.29 -256.94,1048.58z"/>
    <path class="fil1" d="M4454.81 700.08l325.8 -23.89c279.99,-19 560.06,-41.11 840.05,-61.32l287.71 -21.05c6.45,-0.47 12.38,-0.07 16.45,-4.06 1.7,-29.72 -2.07,-53.96 -7.09,-81.35 -1.21,-6.59 -0.99,-13.79 -2.31,-20 -0.81,-3.85 -1.56,-3.7 -2.61,-7.64 -2.05,-7.64 -7.89,-36.86 -11.01,-44.81 -7.14,-18.15 -14.46,-44.83 -23.43,-60.98 -0.75,-1.35 -2.98,-5.5 -3.43,-6.85l-4.15 -11c-0.85,-1.62 -0.96,-2.1 -1.93,-3.7l-35.81 -57.29c-2.23,-5.74 -0.13,-2.27 -3.85,-5.87 -1.87,-1.82 -3.22,-3.47 -4.62,-5.36 -0.87,-1.18 -0.88,-1.32 -1.79,-2.72 -0.13,-0.2 -0.31,-0.49 -0.43,-0.69l-1.85 -2.59c-8.96,-11.57 -32.57,-38.1 -43.36,-48.27l-52.75 -44.73c-3.81,-2.98 -7.8,-5.6 -11.73,-8.41 -8.93,-6.34 -30.54,-23.55 -40.13,-27.18 -5.25,-1.99 -6.63,-5.53 -10.97,-8l-12.89 -5.68c-5.08,-1.78 -7.9,-4.93 -12.35,-7.5 -5.02,-2.9 -10.85,-4.66 -15.72,-8.18 -4.43,-3.21 -11.2,-5.44 -16.3,-7.15l-4.17 -2.22c-1.8,-1.26 0.96,0.18 -1.77,-1.27l-14.03 -5.22c-11.43,-2.61 -22.59,-8.73 -33.81,-12.15 -2.32,-0.71 -4.82,-0.79 -7.14,-1.89 -10.91,-5.21 -24.08,-8.52 -35.48,-11.93 -5.63,-1.69 -6.59,-4.27 -12.92,-4.89l-30.03 -7.15c-5.34,-0.98 -10.48,-0.01 -15.45,-2.42 -4.11,-1.99 -9.95,-1.57 -14.25,-3.63l-30.17 -6.11c-6.32,-0.98 -11.49,0.68 -17.37,-1.33 -7.46,-2.55 -39.2,-2.92 -48.2,-5.17 -5.19,-1.3 -10.38,-2.38 -16.07,-2.29l-25.07 -0.66c-3.25,-0.13 -5.81,-1.15 -8.38,-1.43l-68.85 -1.2 -76.19 5.54c-13.3,1.04 -21.23,4.85 -34.07,6.06 -11.64,1.11 -24.08,3.09 -35.08,4.85 -3.1,0.5 -5.45,0.32 -8.31,1.42 -3.45,1.32 -2.64,1.79 -7.66,2.43 -6.88,0.88 -11.64,1.93 -18.08,2.72 -5.78,0.7 -11.35,2.09 -16.46,4.02 -5.58,2.11 -11.2,2.51 -17.35,3.67 -6.43,1.23 -9.19,2.54 -14.68,4.81 -5.48,2.28 -11.26,2.28 -17.15,3.81 -6.2,1.62 -8.69,3.57 -15.8,5.2 -8.28,1.9 -9.22,1.08 -16.1,4.77 -8.75,4.69 -8.68,-0.62 -21.83,7.89 -4.94,3.2 -5.68,0.26 -15.41,5.65 -2.87,1.6 -6.22,1.67 -9.51,2.09 -8.96,1.16 -7.48,3.91 -14.39,6.4 -6.28,2.26 -8.65,4.38 -14.41,5.83 -9.36,2.37 -7.1,1.7 -13.79,7.02 -11.22,8.95 -41.6,16.44 -56.06,26.75 -4.52,3.22 -8.92,4.57 -13.75,7.58 -2.9,1.79 -3.98,1.67 -6.95,3.22l-38.85 24.27c-3.28,2.27 -2.06,2.53 -6.41,4.76 -10.31,5.27 -21.3,13.31 -30.44,21.87l-54.86 42.03c-3.86,3.56 -6.73,6.32 -10.69,9.96l-5.47 4.83c-2.29,2.2 -3.74,3.41 -5.87,5.63l-26.97 26.07c-2.69,2.19 -3.1,3.63 -4.94,6.43l-27.37 31.73c-8.81,11.5 -17.75,22.7 -25.24,35.41 -1.99,3.38 -2.01,3.48 -4.48,6.06l-6.59 9.67c-1.31,2.03 -1.17,1.66 -2.62,3.36 -3.72,4.33 -4.65,8.71 -8.16,14.1 -4.02,6.21 -6.94,15.67 -11.55,21.55l-1.11 1.25c-3.06,3.5 -3.86,8.31 -6.11,12.58 -4,7.58 -6.34,15.71 -11.04,22.21 -2.62,3.62 -1.91,4.52 -3.69,9.1l-10.86 31.47c-2.37,8.11 -5.4,13.34 -8.83,25.7 -1.06,3.81 -1.84,4.31 -2.8,7.85 -0.95,3.5 -0.85,6.23 -2.15,10.1 -4.2,12.56 -9.49,42.66 -11.5,56.64 -1,6.9 -3.02,13.94 -3.58,19.12l-3.84 41.66c-1.47,28.94 -2.43,31.2 12.71,30.1zm328.23 -355.04c-13.84,2.87 -45.14,29.58 -52.65,51.43 -2.07,6.04 0.39,0.17 -3.76,6.91l-9.19 29.84c-3.1,22.72 5.04,25.4 5.22,43.06 7.43,5.09 5.49,4.02 8.72,9.29l13.61 18.41c6.11,6.64 24.01,17.15 33.15,18.23 20.2,2.38 6.9,6.4 27.84,5.22 22.86,-1.29 39.97,-3.23 58.79,-16.76 13.55,-9.75 18.31,-14.06 27.01,-26.61l6.81 -12.11c9.49,-17.57 3.23,-0.34 8.09,-25.74 2.08,-10.81 5.32,-17.87 2.42,-30.81 -6.57,-29.29 -12.78,-45.88 -39.08,-62.82l-9.43 -6.13c-4.15,-1.96 -9.75,-1.99 -14.34,-3.28 -25.33,-7.12 -37.89,-1.08 -63.21,1.87z"/>
    <line class="fil2" x1="5243.02" y1="480.3" x2="5243.02" y2= "480.3" />
    <line class="fil3" x1="5243.02" y1="480.3" x2="5243.02" y2= "480.3" />
   </g>
  </g>
 </g>
</svg>
